<?xml version="1.0" encoding="UTF-8"?>
<!DOCTYPE svg PUBLIC "-//W3C//DTD SVG 1.1//EN" "http://www.w3.org/Graphics/SVG/1.1/DTD/svg11.dtd">
<!-- Creator: CorelDRAW X7 -->
<svg xmlns="http://www.w3.org/2000/svg" xml:space="preserve" width="1024px" height="613px" version="1.1" style="shape-rendering:geometricPrecision; text-rendering:geometricPrecision; image-rendering:optimizeQuality; fill-rule:evenodd; clip-rule:evenodd"
viewBox="0 0 1024 613"
 xmlns:xlink="http://www.w3.org/1999/xlink">
 <defs>
  <style type="text/css">
   <![CDATA[
    .fil0 {fill:black}
   ]]>
  </style>
 </defs>
 <g id="Capa_x0020_1">
  <metadata id="CorelCorpID_0Corel-Layer"/>
  <g id="_2819469792944">
   <g>
    <g id="XMLID_928_">
     <path id="XMLID_930_" class="fil0" d="M1012 335l-143 -107c-7,12 -19,21 -34,24 -10,2 -89,19 -101,22 -22,5 -43,-7 -50,-18 -12,-19 -44,-69 -57,-89l78 76c6,6 15,8 24,7l101 -22c15,-3 24,-19 19,-34 0,0 0,0 0,0 -4,-13 -17,-20 -30,-17 0,0 0,0 0,0 -32,7 -56,12 -88,19l0 0 -70 -69 74 43 6 -2 -51 -69c-12,-16 -35,-20 -51,-8l-52 39c-16,11 -19,34 -8,50l110 149 -55 0 -112 -198c-4,-8 -11,-12 -20,-12l-397 0c-10,0 -20,7 -22,18l-43 192 0 105c-23,5 -40,25 -40,50 0,28 23,51 51,51l27 0c0,-68 56,-124 123,-124 68,0 124,56 124,124l0 0 190 0 0 0c0,-68 56,-124 124,-124 68,0 123,56 123,124l8 0c29,0 52,-23 52,-51 0,-23 -15,-42 -34,-49l0 -25c0,-21 -9,-41 -23,-55l73 15 47 153c5,17 23,26 39,21 17,-5 26,-23 21,-39l-53 -171c-4,-11 -12,-19 -23,-21l-53 -11 30 -14 128 97c14,10 33,7 44,-7 10,-13 7,-33 -6,-43zm-672 -164l145 0 59 106 -204 0 0 -106 0 0zm-211 0l159 0 0 106 -182 0 23 -106z"/>
     <circle id="XMLID_937_" class="fil0" cx="201" cy="535" r="78"/>
     <circle id="XMLID_1074_" class="fil0" cx="639" cy="535" r="78"/>
     <circle id="XMLID_1075_" class="fil0" cx="572" cy="54" r="54"/>
    </g>
   </g>
   <g>
   </g>
   <g>
   </g>
   <g>
   </g>
   <g>
   </g>
   <g>
   </g>
   <g>
   </g>
   <g>
   </g>
   <g>
   </g>
   <g>
   </g>
   <g>
   </g>
   <g>
   </g>
   <g>
   </g>
   <g>
   </g>
   <g>
   </g>
   <g>
   </g>
  </g>
 </g>
</svg>
