<?xml version="1.0" encoding="UTF-8"?>
<!DOCTYPE svg PUBLIC "-//W3C//DTD SVG 1.1//EN" "http://www.w3.org/Graphics/SVG/1.1/DTD/svg11.dtd">
<!-- Creator: CorelDRAW X7 -->
<svg xmlns="http://www.w3.org/2000/svg" xml:space="preserve" width="1024px" height="762px" version="1.1" style="shape-rendering:geometricPrecision; text-rendering:geometricPrecision; image-rendering:optimizeQuality; fill-rule:evenodd; clip-rule:evenodd"
viewBox="0 0 312 232"
 xmlns:xlink="http://www.w3.org/1999/xlink">
 <defs>
  <style type="text/css">
   <![CDATA[
    .fil0 {fill:black}
    .fil1 {fill:#514D4B}
    .fil2 {fill:white}
   ]]>
  </style>
 </defs>
 <g id="Capa_x0020_1">
  <metadata id="CorelCorpID_0Corel-Layer"/>
  <g id="_2819469762112">
   <path class="fil0" d="M118 118c20,-8 23,-7 30,11 4,-18 16,-21 31,-19 9,1 13,-2 10,-13 -5,-17 -3,-34 7,-50 2,-3 4,-6 8,-7 36,-8 72,-17 108,-25l0 13c-9,4 -23,2 -28,8 -6,7 4,19 4,29 0,4 3,9 3,13 0,8 5,7 10,6 3,-1 7,-2 11,-3l0 102c-6,1 -13,2 -20,3 -11,3 -21,6 -24,22 -5,21 -42,27 -59,11 -10,-10 -20,-11 -32,-3 -3,1 -7,2 -9,1 -13,-7 -25,-3 -34,4 -13,10 -18,1 -24,-7 -14,18 -33,21 -48,16 -14,-4 -22,-14 -22,-25 0,-14 -9,-14 -16,-15 -9,-2 -16,-4 -24,-6l0 -101c1,1 3,1 4,1 7,2 16,6 16,-9 0,-9 3,-19 7,-28 5,-10 -2,-12 -7,-12 -7,-1 -14,-2 -20,-4l0 -14c36,9 72,17 108,26 11,3 16,5 14,20 -3,18 -6,37 -4,55zm-48 -49c-7,0 -12,0 -18,0 14,-20 -12,-12 -12,-22 -3,12 -4,24 -9,35 -3,8 0,8 6,10 14,2 29,7 43,10 2,1 4,2 5,0 1,-2 1,-5 0,-6 -4,-10 -12,-9 -22,-4 3,-9 5,-15 7,-23zm174 -6c0,9 15,19 -3,25 -1,0 -3,11 5,9 11,-2 23,-5 33,-11 2,-1 -2,-14 -4,-22 0,-1 1,-3 0,-4 -1,-3 -2,-7 -6,-5 -3,1 -3,4 -2,7 1,4 7,7 4,12 -9,-3 -17,-7 -27,-11zm-164 150c3,-2 13,-1 12,-14 -1,-11 -7,-14 -17,-14 -10,1 -17,7 -17,15 1,6 6,16 22,13zm170 -20c-1,-6 -6,-13 -15,-13 -7,0 -16,4 -16,15 0,9 5,16 15,15 8,0 17,-2 16,-17zm-45 -134c-17,16 -2,31 -2,45 0,4 4,3 6,1 3,-2 5,-2 4,-7 -4,-13 -6,-25 -8,-39zm-98 4c-3,14 -6,23 -8,33 -3,8 -2,13 8,11 0,-13 0,-26 0,-44zm156 110c-7,-16 -20,-21 -40,-10 13,2 27,-2 40,10zm-185 -7c-16,-7 -24,-5 -30,8 10,-4 19,-9 30,-8zm189 7c-1,1 -2,2 -2,2 1,1 2,2 2,3 1,-1 2,-1 2,-2 -1,-1 -2,-2 -2,-3zm-221 6c-1,-1 -1,-2 -2,-3 -1,1 -2,2 -2,3 0,1 1,2 1,2 1,-1 2,-1 3,-2z"/>
   <path class="fil0" d="M152 100c3,-27 10,-54 17,-80 21,15 21,15 9,37 -7,16 -13,32 -24,46 -1,-1 -1,-2 -2,-3z"/>
   <path class="fil0" d="M151 73c-3,-18 -4,-37 -8,-55 -1,-4 0,-8 3,-12 1,-3 3,-7 7,-6 4,1 5,4 5,8 0,22 -3,44 -7,65z"/>
   <path class="fil0" d="M146 90c-9,-19 -16,-35 -23,-51 -4,-9 4,-10 9,-12 7,-3 7,5 7,7 0,17 8,34 7,56z"/>
   <path class="fil1" d="M154 103c-1,1 -3,2 -4,3 -1,-3 -1,-5 2,-6 1,1 1,2 2,3z"/>
   <path class="fil2" d="M312 81c-4,1 -8,2 -11,3 -5,1 -10,2 -10,-6 0,-4 -3,-8 -3,-13 0,-10 -10,-22 -4,-29 5,-6 19,-4 28,-8l0 53z"/>
   <path class="fil2" d="M0 31c6,2 13,3 20,4 5,0 12,3 7,12 -4,9 -7,19 -7,28 0,15 -9,11 -16,9 -1,0 -3,0 -4,-1l0 -52z"/>
   <path class="fil2" d="M70 69c-2,8 -4,14 -7,23 10,-5 18,-6 22,4 1,1 1,4 0,6 -1,2 -3,1 -5,0 -14,-4 -29,-8 -43,-10 -6,-2 -9,-2 -6,-10 5,-11 6,-23 9,-35 0,10 26,2 12,22 6,0 11,0 18,0z"/>
   <path class="fil2" d="M244 63c10,4 18,8 27,11 3,-5 -2,-8 -4,-11 -1,-4 0,-7 3,-8 3,-2 5,2 5,5 1,1 0,3 1,5 1,7 5,20 3,21 -10,6 -21,9 -33,11 -8,2 -5,-9 -5,-9 18,-6 3,-16 3,-25z"/>
   <path class="fil2" d="M80 213c-15,3 -21,-7 -21,-13 -1,-8 6,-14 16,-15 10,0 16,3 17,14 1,13 -9,12 -12,14z"/>
   <path class="fil2" d="M250 193c1,15 -8,17 -16,17 -9,1 -15,-6 -15,-15 0,-10 9,-15 16,-15 9,0 14,7 15,13z"/>
   <path class="fil2" d="M205 59c2,14 4,26 8,39 1,5 -1,5 -4,7 -2,2 -6,3 -6,-1 0,-14 -15,-29 2,-45z"/>
   <path class="fil2" d="M107 63c0,18 0,31 0,44 -10,2 -11,-3 -8,-11 2,-10 5,-19 8,-33z"/>
   <path class="fil2" d="M263 173c-13,-13 -27,-9 -40,-10 20,-11 33,-6 40,10z"/>
   <path class="fil2" d="M78 166c-11,-1 -20,4 -30,8 6,-13 14,-15 30,-8z"/>
   <path class="fil2" d="M267 173c0,1 1,2 2,3 0,1 -1,1 -2,2 -1,-1 -1,-2 -2,-3 0,0 1,-1 2,-2z"/>
   <path class="fil2" d="M46 179c-1,0 -2,1 -3,2 0,-1 -1,-1 -1,-2 1,-1 2,-2 2,-3 1,1 1,2 2,3z"/>
  </g>
 </g>
</svg>
