<?xml version="1.0" encoding="UTF-8"?>
<!DOCTYPE svg PUBLIC "-//W3C//DTD SVG 1.1//EN" "http://www.w3.org/Graphics/SVG/1.1/DTD/svg11.dtd">
<!-- Creator: CorelDRAW X7 -->
<svg xmlns="http://www.w3.org/2000/svg" xml:space="preserve" width="1024px" height="622px" version="1.1" style="shape-rendering:geometricPrecision; text-rendering:geometricPrecision; image-rendering:optimizeQuality; fill-rule:evenodd; clip-rule:evenodd"
viewBox="0 0 1024 622"
 xmlns:xlink="http://www.w3.org/1999/xlink">
 <defs>
  <style type="text/css">
   <![CDATA[
    .fil0 {fill:black}
   ]]>
  </style>
 </defs>
 <g id="Capa_x0020_1">
  <metadata id="CorelCorpID_0Corel-Layer"/>
  <g id="_2819470846064">
   <g>
    <path class="fil0" d="M626 297c10,-21 19,-101 -93,-77 0,0 -132,18 -213,-27 -11,-6 -6,-16 -8,-25 -2,-6 -31,-27 -67,-6 -24,15 -49,36 -73,56 -24,21 -49,42 -63,47 -26,8 -56,10 -71,10 -9,0 -14,-1 -15,-1l-23 -1 0 260 21 0c70,0 116,20 156,38 7,3 15,6 22,9 68,28 133,42 196,42l0 0c9,0 16,-1 22,-1 33,-1 88,-14 104,-85 19,-10 33,-24 40,-43 3,-8 5,-18 5,-28 0,-7 -1,-14 -3,-20 14,-12 24,-26 28,-42 1,-6 2,-12 2,-19 0,-16 -3,-28 -7,-37 12,-13 28,-26 40,-50l0 0zm0 0z"/>
    <path class="fil0" d="M1008 31l0 -1c0,-9 -6,-15 -14,-15l-36 0 0 -8c0,-4 -4,-7 -7,-7l-29 0c-3,0 -7,3 -7,7l0 8 -576 0c-8,0 -15,6 -15,14l0 118c3,3 5,5 6,8 1,5 1,9 1,13 0,2 0,4 0,5 0,0 1,0 1,0 42,24 102,29 144,29 26,0 47,-1 57,-2l6 -18 7 0c0,5 1,10 2,15 11,-2 22,-3 31,-3 7,0 13,0 19,1 -1,-4 -2,-8 -3,-13l85 0c4,12 6,25 6,38 0,43 -22,80 -54,102 -6,8 -13,15 -19,21 0,0 -1,1 -1,1 4,10 5,22 5,35 0,4 0,8 -1,12 72,-23 125,-91 125,-171 0,-13 -2,-25 -4,-38l256 0c8,0 14,-6 14,-14l0 -46c10,-4 17,-14 17,-26l0 -38c1,-12 -6,-22 -16,-27l0 0zm0 0z"/>
   </g>
  </g>
 </g>
</svg>
