<?xml version="1.0" encoding="UTF-8"?>
<!DOCTYPE svg PUBLIC "-//W3C//DTD SVG 1.1//EN" "http://www.w3.org/Graphics/SVG/1.1/DTD/svg11.dtd">
<!-- Creator: CorelDRAW X7 -->
<svg xmlns="http://www.w3.org/2000/svg" xml:space="preserve" width="43349px" height="40719px" version="1.1" style="shape-rendering:geometricPrecision; text-rendering:geometricPrecision; image-rendering:optimizeQuality; fill-rule:evenodd; clip-rule:evenodd"
viewBox="0 0 18892 17745"
 xmlns:xlink="http://www.w3.org/1999/xlink">
 <defs>
  <style type="text/css">
   <![CDATA[
    .fil0 {fill:black}
   ]]>
  </style>
 </defs>
 <g id="Capa_x0020_1">
  <metadata id="CorelCorpID_0Corel-Layer"/>
  <g id="_1629114161424">
   <path class="fil0" d="M11170 8800l-2870 2870c110,47 228,78 345,78 228,0 439,-94 596,-259 94,-102 251,-117 369,-47 235,141 509,212 784,212 846,0 1536,-690 1536,-1537 -8,-549 -298,-1042 -760,-1317z"/>
   <path class="fil0" d="M7062 9035c47,110 23,243 -63,322l-6711 6711c-384,384 -384,1003 0,1387 188,188 431,290 690,290 259,0 510,-102 690,-290l10051 -10050c117,-118 305,-118 423,0l2352 2352c282,282 658,439 1050,439 400,0 776,-157 1051,-439l1983 -1984c204,-204 314,-462 314,-752 0,-283 -110,-549 -314,-753l0 0c-415,-416 -1082,-416 -1497,0l-1411 1411c-118,118 -306,118 -424,0l-2900 -2901c-102,-102 -118,-258 -39,-376 78,-118 227,-165 360,-118 761,298 1615,118 2195,-454 800,-800 800,-2094 0,-2885 -799,-800 -2093,-800 -2885,0 -572,572 -752,1434 -454,2195 54,133 7,282 -118,361 -118,78 -274,62 -376,-40l-2932 -2932c-706,-705 -1866,-705 -2572,0 -596,596 -1262,1262 -1780,1780 -180,180 -274,415 -274,666 0,251 102,494 282,674l24 24c172,172 400,267 643,267l0 0c243,0 470,-94 643,-267l1223 -1223c54,-55 133,-86 211,-86 79,0 157,31 212,86l1811 1811c117,118 117,306 0,423l-2117 2117c-55,55 -133,86 -212,86l-4421 0c-910,0 -1654,737 -1654,1655 0,893 0,1920 0,2704 0,251 94,486 274,659 180,172 416,274 666,274l32 0c243,0 462,-94 635,-266 172,-173 258,-392 258,-635l0 -2117c0,-79 32,-157 87,-212 55,-55 133,-86 211,-86l4500 0c126,-16 236,63 283,172z"/>
  </g>
 </g>
</svg>
