<?xml version="1.0" encoding="UTF-8"?>
<!DOCTYPE svg PUBLIC "-//W3C//DTD SVG 1.1//EN" "http://www.w3.org/Graphics/SVG/1.1/DTD/svg11.dtd">
<!-- Creator: CorelDRAW X7 -->
<svg xmlns="http://www.w3.org/2000/svg" xml:space="preserve" width="992px" height="1024px" version="1.1" style="shape-rendering:geometricPrecision; text-rendering:geometricPrecision; image-rendering:optimizeQuality; fill-rule:evenodd; clip-rule:evenodd"
viewBox="0 0 992 1024"
 xmlns:xlink="http://www.w3.org/1999/xlink">
 <defs>
  <style type="text/css">
   <![CDATA[
    .fil0 {fill:#0D0E0E}
   ]]>
  </style>
 </defs>
 <g id="Capa_x0020_1">
  <metadata id="CorelCorpID_0Corel-Layer"/>
  <g id="_2819469290800">
   <path class="fil0" d="M571 641c2,-7 3,-15 3,-24 7,-155 -76,-282 -202,-364 -74,-49 -144,4 -162,72 -46,-38 -126,19 -90,80 2,2 3,4 4,7 -36,0 -150,-1 -118,0 38,0 128,104 128,104l0 -87c28,44 64,84 117,90 24,4 44,-5 61,-18 21,27 31,55 33,90 -18,0 -36,1 -54,3 -64,7 -103,22 -115,89 -20,102 32,177 89,255 46,64 150,2 104,-62 -38,-53 -76,-96 -74,-157 37,-6 74,-5 112,-1 18,8 39,11 59,10 31,105 89,198 165,277 54,58 140,-30 86,-87 -75,-80 -125,-171 -146,-277l0 0zm0 0z"/>
   <path class="fil0" d="M112 139c0,2 0,4 0,6 8,57 60,97 116,89 56,-7 95,-60 87,-117 -1,-12 -4,-23 -10,-33 4,-2 5,-6 4,-15l-3 -25c-4,-28 -29,-47 -57,-44l-109 15c-28,4 -47,30 -43,58l2 20c-15,12 -28,28 -25,45 3,15 19,11 38,1l0 0zm0 0z"/>
   <path class="fil0" d="M388 235c0,0 247,134 217,333 -64,165 214,335 366,-46 0,0 192,-522 -583,-287l0 0zm417 311l0 32 -33 0 0 -30c-15,-2 -31,-7 -41,-14l-4 -3 12 -35 8 6c10,7 24,11 37,11 16,0 26,-8 26,-20 0,-9 -3,-18 -28,-28 -25,-10 -52,-25 -52,-58 0,-26 17,-46 44,-53l0 -30 33 0 0 28c12,2 23,5 34,11l5 3 -13 34 -8 -4c-4,-3 -15,-9 -32,-9 -17,0 -23,9 -23,17 0,10 4,15 31,27 22,9 49,25 49,60 0,26 -18,48 -45,55l0 0zm0 0z"/>
  </g>
 </g>
</svg>
