<?xml version="1.0" encoding="UTF-8"?>
<!DOCTYPE svg PUBLIC "-//W3C//DTD SVG 1.1//EN" "http://www.w3.org/Graphics/SVG/1.1/DTD/svg11.dtd">
<!-- Creator: CorelDRAW X7 -->
<svg xmlns="http://www.w3.org/2000/svg" xml:space="preserve" width="43349px" height="40719px" version="1.1" style="shape-rendering:geometricPrecision; text-rendering:geometricPrecision; image-rendering:optimizeQuality; fill-rule:evenodd; clip-rule:evenodd"
viewBox="0 0 43349 40718"
 xmlns:xlink="http://www.w3.org/1999/xlink">
 <defs>
  <style type="text/css">
   <![CDATA[
    .fil1 {fill:black}
    .fil0 {fill:black}
   ]]>
  </style>
 </defs>
 <g id="Capa_x0020_1">
  <metadata id="CorelCorpID_0Corel-Layer"/>
  <g id="_1629113878112">
   <path class="fil0" d="M25630 20193l-6584 6584c252,108 522,180 791,180 522,0 1008,-216 1367,-594 216,-234 576,-270 846,-108 540,324 1169,486 1799,486 1943,0 3526,-1583 3526,-3526 -18,-1259 -684,-2392 -1745,-3022z"/>
   <path class="fil0" d="M16204 20733c108,251 54,557 -144,737l-15399 15399c-881,881 -881,2302 0,3184 432,431 990,665 1583,665 594,0 1169,-234 1583,-665l23062 -23062c270,-270 702,-270 972,0l5396 5396c648,648 1511,1008 2411,1008 917,0 1781,-360 2410,-1008l4551 -4551c468,-467 720,-1061 720,-1727 0,-647 -252,-1259 -720,-1727l0 0c-953,-953 -2482,-953 -3435,0l-3238 3238c-270,270 -702,270 -972,0l-6656 -6656c-234,-233 -270,-593 -90,-863 180,-270 522,-378 828,-270 1745,684 3706,270 5037,-1043 1835,-1835 1835,-4803 0,-6620 -1835,-1835 -4803,-1835 -6620,0 -1313,1313 -1727,3292 -1044,5037 126,306 18,647 -269,827 -270,180 -630,144 -864,-90l-6728 -6728c-1619,-1619 -4281,-1619 -5900,0 -1367,1367 -2896,2897 -4084,4084 -414,414 -629,953 -629,1529 0,576 234,1133 647,1547l54 54c396,396 918,612 1475,612l0 0c558,0 1080,-216 1475,-612l2807 -2806c126,-126 305,-198 485,-198 180,0 360,72 486,198l4156 4155c269,270 269,702 0,972l-4858 4857c-126,126 -305,197 -485,197l-10146 1c-2087,0 -3796,1691 -3796,3795 0,2051 0,4408 0,6207 0,575 216,1115 630,1511 414,395 953,629 1529,629l72 0c558,0 1061,-216 1457,-612 396,-395 594,-899 594,-1457l0 -4857c0,-180 71,-359 197,-485 126,-126 306,-198 486,-198l10326 0c288,-36 540,144 648,396z"/>
  </g>
 </g>
 <g id="Capa_x0020_1_0">
  <metadata id="CorelCorpID_1Corel-Layer"/>
  <g id="_2819470846064">
   <g>
    <path class="fil1" d="M22031 20315c31,-65 59,-315 -291,-240 0,0 -412,56 -665,-85 -35,-18 -19,-50 -25,-78 -7,-18 -97,-84 -210,-18 -75,46 -153,112 -228,175 -75,65 -153,131 -197,146 -81,25 -175,32 -222,32 -28,0 -43,-3 -47,-3l-71 -4 0 813 65 0c219,0 363,62 488,119 22,9 47,18 68,28 213,87 416,131 613,131l0 0c28,0 50,-3 69,-3 103,-3 275,-44 325,-266 59,-31 103,-75 125,-134 9,-25 15,-56 15,-88 0,-21 -3,-43 -9,-62 44,-38 75,-81 87,-131 3,-19 7,-38 7,-60 0,-50 -10,-87 -22,-115 37,-41 87,-82 125,-157l0 0 0 0zm0 0z"/>
    <path class="fil1" d="M23224 19484l0 -3c0,-28 -18,-47 -43,-47l-113 0 0 -25c0,-12 -12,-22 -22,-22l-90 0c-10,0 -22,10 -22,22l0 25 -1800 0c-25,0 -47,19 -47,44l0 369c9,9 16,15 19,25 3,15 3,28 3,40 0,7 0,13 0,16 0,0 3,0 3,0 131,75 319,91 450,91 81,0 147,-4 178,-7l19 -56 22 0c0,16 3,31 6,47 34,-6 69,-9 97,-9 22,0 40,0 59,3 -3,-13 -6,-25 -9,-41l265 0c13,38 19,78 19,119 0,134 -69,250 -169,319 -18,25 -40,46 -59,65 0,0 -3,3 -3,3 12,32 16,69 16,110 0,12 0,25 -4,37 225,-72 391,-284 391,-534 0,-41 -6,-78 -12,-119l800 0c25,0 43,-19 43,-44l0 -143c32,-13 53,-44 53,-82l0 -118c4,-38 -18,-69 -50,-85l0 0 0 0zm0 0z"/>
   </g>
  </g>
 </g>
</svg>
