<?xml version="1.0" encoding="UTF-8"?>
<!DOCTYPE svg PUBLIC "-//W3C//DTD SVG 1.1//EN" "http://www.w3.org/Graphics/SVG/1.1/DTD/svg11.dtd">
<!-- Creator: CorelDRAW X7 -->
<svg xmlns="http://www.w3.org/2000/svg" xml:space="preserve" width="3538px" height="20334px" version="1.1" style="shape-rendering:geometricPrecision; text-rendering:geometricPrecision; image-rendering:optimizeQuality; fill-rule:evenodd; clip-rule:evenodd"
viewBox="0 0 3538 20334"
 xmlns:xlink="http://www.w3.org/1999/xlink">
 <defs>
  <style type="text/css">
   <![CDATA[
    .fil1 {fill:#FEFEFE}
    .fil0 {fill:black}
   ]]>
  </style>
 </defs>
 <g id="Capa_x0020_1">
  <metadata id="CorelCorpID_0Corel-Layer"/>
  <g id="_2819470846064">
   <g>
    <path class="fil0" d="M2125 10123c31,-66 60,-316 -290,-241 0,0 -413,57 -666,-84 -34,-19 -19,-50 -25,-78 -6,-19 -97,-84 -209,-19 -75,47 -153,113 -228,175 -75,66 -154,131 -197,147 -82,25 -175,31 -222,31 -28,0 -44,-3 -47,-3l-72 -3 0 813 66 0c218,0 362,62 487,118 22,10 47,19 69,28 212,88 416,132 612,132l0 0c29,0 50,-3 69,-3 103,-4 275,-44 325,-266 59,-31 103,-75 125,-134 9,-25 16,-57 16,-88 0,-22 -3,-44 -10,-62 44,-38 75,-82 88,-132 3,-18 6,-37 6,-59 0,-50 -9,-88 -22,-116 38,-40 88,-81 125,-156l0 0 0 0zm0 0z"/>
    <path class="fil0" d="M3319 9292l0 -3c0,-28 -19,-47 -44,-47l-112 0 0 -25c0,-13 -13,-22 -22,-22l-91 0c-9,0 -22,9 -22,22l0 25 -1800 0c-25,0 -46,19 -46,44l0 368c9,10 15,16 18,25 3,16 3,28 3,41 0,6 0,12 0,16 0,0 4,0 4,0 131,75 318,90 450,90 81,0 146,-3 178,-6l18 -56 22 0c0,15 3,31 6,47 35,-7 69,-10 97,-10 22,0 41,0 60,3 -3,-12 -7,-25 -10,-40l266 0c12,37 19,78 19,118 0,135 -69,250 -169,319 -19,25 -41,47 -59,66 0,0 -4,3 -4,3 13,31 16,69 16,109 0,13 0,25 -3,38 225,-72 391,-285 391,-535 0,-40 -7,-78 -13,-118l800 0c25,0 44,-19 44,-44l0 -144c31,-12 53,-44 53,-81l0 -119c3,-37 -19,-69 -50,-84l0 0 0 0zm0 0z"/>
   </g>
  </g>
  <g id="_2696542628080">
   <rect class="fil1" width="3538" height="15384"/>
   <rect class="fil1" y="17511" width="3538" height="2822"/>
  </g>
 </g>
</svg>
